<svg id="SvgjsSvg1001" width="288" height="288" xmlns="http://www.w3.org/2000/svg" version="1.1" xmlns:xlink="http://www.w3.org/1999/xlink" xmlns:svgjs="http://svgjs.com/svgjs"><defs id="SvgjsDefs1002"></defs><g id="SvgjsG1008" transform="matrix(1,0,0,1,0,0)"><svg xmlns="http://www.w3.org/2000/svg" viewBox="0 0 64 64" width="288" height="288"><g data-name="Layer 2" fill="#000000" class="color000 svgShape"><rect width="58" height="34" x="3" y="21" fill="#11a672" rx="1" class="color0a51ad svgShape"></rect><path fill="#21e8a2" d="M60,21H32V55H60a1,1,0,0,0,1-1V22A1,1,0,0,0,60,21Z" class="color1e7eeb svgShape"></path><path fill="#27e8a5" d="M56,18V47a1,1,0,0,1-1,1H42.72a19,19,0,0,0-8.5,2c-2.72,1.18-1.49,1.45-4.44,0a19,19,0,0,0-8.5-2H9a1,1,0,0,1-1-1V18a1,1,0,0,1,1-1H21.28c.24,0,.48,0,.72,0a22.53,22.53,0,0,1,10,2.86A22.19,22.19,0,0,1,42.72,17H55A1,1,0,0,1,56,18Z" class="colorf08f1f svgShape"></path><path fill="#4becb4" d="M55,17H42.72A22.19,22.19,0,0,0,32,19.88V51c.44,0,.77-.36,2.22-1a19,19,0,0,1,8.5-2H55a1,1,0,0,0,1-1V18A1,1,0,0,0,55,17Z" class="colorffd138 svgShape"></path><path fill="#32eaa9" d="M60,21H57V55h3a1,1,0,0,0,1-1V22A1,1,0,0,0,60,21Z" class="color31b6eb svgShape"></path><path fill="#0e885d" d="M4,55H7V21H4a1,1,0,0,0-1,1V54A1,1,0,0,0,4,55Z" class="color003996 svgShape"></path><path fill="#8af3ce" d="M55,17H52V48h3a1,1,0,0,0,1-1V18A1,1,0,0,0,55,17Z" class="colorffe37e svgShape"></path><path fill="#2de9a7" d="M9,48h3V17H9a1,1,0,0,0-1,1V47A1,1,0,0,0,9,48Z" class="colorf26c24 svgShape"></path><path fill="#0c6e4c" d="M22,25H17a3,3,0,0,0-3,3v8a3,3,0,0,0,3,3h5a1,1,0,0,0,1-1V26A1,1,0,0,0,22,25Z" class="color00547a svgShape"></path><path fill="#32eaa9" d="M47,25H42a1,1,0,0,0-1,1V38a1,1,0,0,0,1,1h5a3,3,0,0,0,3-3V28A3,3,0,0,0,47,25Z" class="color31b6eb svgShape"></path><path fill="#12ab75" d="M45 38V26a1 1 0 0 1 1-1H42a1 1 0 0 0-1 1V38a1 1 0 0 0 1 1h4A1 1 0 0 1 45 38zM19 38V26a1 1 0 0 0-1-1h4a1 1 0 0 1 1 1V38a1 1 0 0 1-1 1H18A1 1 0 0 0 19 38z" class="color008abd svgShape"></path><path fill="#12b079" d="M42.17,8.15A14.85,14.85,0,0,0,33,5H31a14.85,14.85,0,0,0-9.17,3.15,1,1,0,0,0-.25,1.29l2,3.51a1,1,0,0,0,1.52.25A9,9,0,0,1,31,11h2a9,9,0,0,1,5.88,2.2A1,1,0,0,0,40.4,13l2-3.51A1,1,0,0,0,42.17,8.15Z" class="color15a3ad svgShape"></path><path fill="#0c6e4c" d="M22.35,10.78A14.83,14.83,0,0,1,31,8h2a14.83,14.83,0,0,1,8.65,2.78l.77-1.34a1,1,0,0,0-.25-1.29A14.85,14.85,0,0,0,33,5H31a14.85,14.85,0,0,0-9.17,3.15,1,1,0,0,0-.25,1.29Z" class="color00547a svgShape"></path></g><path fill="#02140e" d="M60,21H56V18a1,1,0,0,0-1-1H45.65a13,13,0,0,0-3.82-6.52l.59-1a1,1,0,0,0-.25-1.29A14.85,14.85,0,0,0,33,5H31a14.85,14.85,0,0,0-9.17,3.15,1,1,0,0,0-.25,1.29l.59,1A13,13,0,0,0,18.35,17H9a1,1,0,0,0-1,1v3H4a1,1,0,0,0-1,1V54a1,1,0,0,0,1,1H60a1,1,0,0,0,1-1V22A1,1,0,0,0,60,21Zm-6-2V46H42.72A22.1,22.1,0,0,0,33,48.38V21.62L34.22,21a20,20,0,0,1,9.72-2c.11,1.13,0,.72.06,6H42a1,1,0,0,0-1,1V38a1,1,0,0,0,1,1h5a3,3,0,0,0,3-3V28a3,3,0,0,0-3-3H46c0-5.7,0-4.61-.06-6Zm-7,8a1,1,0,0,1,1,1v8a1,1,0,0,1-1,1H43V27ZM31,7h2a12.88,12.88,0,0,1,7.24,2.22l-1,1.74A11,11,0,0,0,33,9H31a11,11,0,0,0-6.24,2l-1-1.74A12.88,12.88,0,0,1,31,7Zm-7.8,5.25.4.7a1,1,0,0,0,1.52.25A9,9,0,0,1,31,11h2a9,9,0,0,1,5.88,2.2A1,1,0,0,0,40.4,13l.4-.7A10.86,10.86,0,0,1,43.57,17h-.85A22.19,22.19,0,0,0,32,19.88l-1.33-.66A22.06,22.06,0,0,0,20.43,17,10.86,10.86,0,0,1,23.2,12.25ZM10,19h8.06c-.11,1.39,0,.29-.06,6H17a3,3,0,0,0-3,3v8a3,3,0,0,0,3,3h5a1,1,0,0,0,1-1V26a1,1,0,0,0-1-1H20c0-5.22-.05-4.88.06-6a20,20,0,0,1,9.72,2l1.22.61V48.38A21.25,21.25,0,0,0,21.28,46H10Zm11,8V37H17a1,1,0,0,1-1-1V28a1,1,0,0,1,1-1ZM59,53H5V23H8V47a1,1,0,0,0,1,1H21.28a19,19,0,0,1,8.5,2c1.6.7,2,1.23,2.67.88L34.22,50a19,19,0,0,1,8.5-2H55a1,1,0,0,0,1-1V23h3Z" data-name="Layer 3" class="color0a0c0c svgShape"></path></svg></g></svg>