<svg xmlns="http://www.w3.org/2000/svg" width="32" height="32" viewBox="0 0 32 32"><g transform="translate(-3744.012 -1472.601)"><path fill="#b4ea7a" d="m 3775.4121,468.239 a 12.375,12.375 0 0 1 -12.375,12.375 12.375,12.375 0 0 1 -12.375,-12.375 12.375,12.375 0 0 1 12.375,-12.375 12.375,12.375 0 0 1 12.375,12.375 z" transform="translate(0 1020.362)"/><g fill="#3a3640" transform="translate(464.943 -384.72)"><path style="line-height:normal;text-indent:0;text-align:start;text-decoration-line:none;text-decoration-style:solid;text-decoration-color:#000;text-transform:none;white-space:normal;isolation:auto;mix-blend-mode:normal;solid-color:#000;solid-opacity:1" d="m 3280.668,1862.0703 c -0.5454,0 -1,0.4547 -1,1 l 0,17 c 0,0.5454 0.4546,1 1,1 l 26.5,0 c 0.5453,0 1,-0.4546 1,-1 l 0,-7 a 0.50004952,0.50004952 0 1 0 -1,0 l 0,7 -26.5,0 0,-17 26.5,0 0,6 a 0.50004952,0.50004952 0 1 0 1,0 l 0,-6 c 0,-0.5453 -0.4547,-1 -1,-1 z" color="#000" enable-background="accumulate" font-family="sans-serif" font-weight="400" overflow="visible"/><path style="line-height:normal;text-indent:0;text-align:start;text-decoration-line:none;text-decoration-style:solid;text-decoration-color:#000;text-transform:none;white-space:normal;isolation:auto;mix-blend-mode:normal;solid-color:#000;solid-opacity:1" fill-rule="evenodd" d="M3279.6699 1876.0703l0 1 .5 0 26.9981 0 .5 0 0-1-.5 0-26.9981 0zM3288.9258 1883.5684a.50004946.50004946 0 100 1l9.9863 0a.50004946.50004946 0 100-1z" color="#000" enable-background="accumulate" font-family="sans-serif" font-weight="400" overflow="visible"/><path style="line-height:normal;text-indent:0;text-align:start;text-decoration-line:none;text-decoration-style:solid;text-decoration-color:#000;text-transform:none;white-space:normal;isolation:auto;mix-blend-mode:normal;solid-color:#000;solid-opacity:1" fill-rule="evenodd" d="M3295.2812 1880.0703a.50004937.50004937 0 00-.4746.6113l.7461 3.4864a.50028573.50028573 0 10.9785-.209l-.746-3.4863a.50004937.50004937 0 00-.504-.4024zM3292.541 1880.0703a.50004937.50004937 0 00-.4883.4024l-.7461 3.4863a.50004937.50004937 0 10.9766.209l.748-3.4864a.50004937.50004937 0 00-.4902-.6113z" color="#000" enable-background="accumulate" font-family="sans-serif" font-weight="400" overflow="visible"/><path d="M3294.4188 1878.5698a.5.5 0 01-.5.5.5.5 0 01-.5-.5.5.5 0 01.5-.5.5.5 0 01.5.5zM3308.1688 1871.0698c0 .2761-.2239.5-.5.5-.2761 0-.5-.2239-.5-.5 0-.2762.2239-.5.5-.5.2761 0 .5.2238.5.5z"/><path style="line-height:normal;text-indent:0;text-align:start;text-decoration-line:none;text-decoration-style:solid;text-decoration-color:#000;text-transform:none;white-space:normal;isolation:auto;mix-blend-mode:normal;solid-color:#000;solid-opacity:1" fill-rule="evenodd" d="m 3291.3145,1865.3281 c -0.8793,0.061 -1.7455,0.3218 -2.711,0.7149 -0.2867,0.1191 -0.4258,0.3071 -0.4258,0.6347 l 0,6.4551 c 0,0.2067 0.1015,0.4631 0.3164,0.5957 0.2149,0.1326 0.4686,0.1118 0.6524,0.033 a 0.50005,0.50005 0 0 0 0.021,-0.01 c 1.6575,-0.8014 2.8135,-0.8452 4.5703,-0.1465 a 0.50005,0.50005 0 0 0 0.373,0 c 1.779,-0.7241 2.7989,-0.6097 4.586,0.1543 0.1851,0.079 0.4399,0.099 0.6543,-0.033 0.2149,-0.1331 0.3164,-0.3881 0.3164,-0.5957 l 0,-6.3731 c 0,-0.3069 -0.1009,-0.4645 -0.3633,-0.6055 -1.8338,-0.9805 -3.4228,-0.9912 -5.3887,-0.3789 -0.9324,-0.3405 -1.7787,-0.5019 -2.5976,-0.4453 z m 0.049,0.9727 c 0.7297,-0.054 1.4582,0.077 2.373,0.4375 a 0.50005,0.50005 0 0 0 0.3379,0.01 c 1.8394,-0.5985 2.9909,-0.5758 4.5899,0.2364 l 0,5.748 c -1.6304,-0.6244 -3.0358,-0.7401 -4.7442,-0.092 -1.685,-0.6277 -3.1608,-0.5661 -4.7461,0.092 l 0,-5.8183 c 0.8204,-0.3243 1.519,-0.5637 2.1895,-0.6133 z m -2.6133,6.543 c 7e-4,-3e-4 0.01,3e-4 0.01,0 -0.01,0 -0.018,0 -0.027,0.01 z" color="#000" enable-background="accumulate" font-family="sans-serif" font-weight="400" overflow="visible"/><path style="line-height:normal;text-indent:0;text-align:start;text-decoration-line:none;text-decoration-style:solid;text-decoration-color:#000;text-transform:none;white-space:normal;isolation:auto;mix-blend-mode:normal;solid-color:#000;solid-opacity:1" fill-rule="evenodd" d="m 3293.9121,1865.8711 a 0.50004994,0.50004994 0 0 0 -0.4941,0.5078 l 0,6.3828 a 0.50004994,0.50004994 0 1 0 1,0 l 0,-6.3828 a 0.50004994,0.50004994 0 0 0 -0.5059,-0.5078 z" color="#000" enable-background="accumulate" font-family="sans-serif" font-weight="400" overflow="visible"/></g></g></svg>