<svg id="SvgjsSvg1025" width="288" height="288" xmlns="http://www.w3.org/2000/svg" version="1.1" xmlns:xlink="http://www.w3.org/1999/xlink" xmlns:svgjs="http://svgjs.com/svgjs"><defs id="SvgjsDefs1026"></defs><g id="SvgjsG1027" transform="matrix(1,0,0,1,0,0)"><svg xmlns="http://www.w3.org/2000/svg" width="288" height="288" enable-background="new 0 0 512 512" viewBox="0 0 512 512"><circle cx="296.248" cy="291.118" r="146.752" fill="#fff6ed" class="colorF5EDFF svgShape"></circle><circle cx="442.999" cy="139.075" r="23.481" fill="#fff6ed" class="colorF5EDFF svgShape"></circle><circle cx="81.738" cy="359.538" r="39.283" fill="#fff6ed" class="colorF5EDFF svgShape"></circle><circle cx="160.228" cy="231.315" r="78.489" fill="#ff9d45" class="colorFFC845 svgShape"></circle><path fill="#ff7b03" d="M201.828,164.767c13.857,14.154,22.412,33.521,22.412,54.895c0,43.348-35.143,78.488-78.49,78.488
			c-15.285,0-29.537-4.383-41.6-11.939c14.248,14.553,34.102,23.596,56.076,23.596c43.35,0,78.49-35.143,78.49-78.49
			C238.717,203.251,223.977,178.642,201.828,164.767z" class="colorFF9903 svgShape"></path><path fill="#ffe1c5" d="M90.029,235.79c0-43.348,35.141-78.49,78.488-78.49c11.807,0,22.996,2.623,33.041,7.293
			c-12.006-7.453-26.162-11.768-41.332-11.768c-43.348,0-78.488,35.141-78.488,78.49c0,31.543,18.615,58.723,45.451,71.197
			C104.889,288.669,90.029,263.97,90.029,235.79z" class="colorFFE9C5 svgShape"></path><polygon fill="#ff9e46" points="161.428 175.269 177.586 208.009 213.717 213.259 187.572 238.743 193.746 274.728 161.428 257.739 129.111 274.728 135.283 238.743 109.139 213.259 145.27 208.009" class="colorFF464C svgShape"></polygon><polygon fill="#ffbc80" points="171.434 261.884 170.373 262.442 193.746 274.728 193.535 273.503" class="colorFF8089 svgShape"></polygon><polygon fill="#ffbc80" points="140.891 268.536 145.289 242.888 119.143 217.403 155.275 212.153 167.453 187.478 161.428 175.269 145.27 208.009 109.139 213.259 135.283 238.743 129.111 274.728" class="colorFF8089 svgShape"></polygon><path fill="#f5efea" d="M310.49,276.437c0-6.777,5.221-12.334,11.801-12.543c10.852-0.348,25.545-1.344,27.496-1.748
			c17.148-3.537,23.621-14.336,24.256-31.316c0.354-9.443,2.236-28.469,14.793-28.465c16.711,0.006,13.859,20.918,14.242,32.656
			c0.221,6.703,0.547,14.883,5.527,19.906c8.945,9.023,25.588,2.998,36.609,5.148c5.928,1.156,10.109,4.033,11.186,10.443
			c0.461,2.736,0.352,7.818-1.033,11.764c-1.123,3.197-0.873,6.736,0.518,9.82c2.236,4.955,1.932,13.031-0.869,18.197
			c-1.861,3.43-2.23,7.527-0.717,11.137c0.848,2.02,1.396,4.674,1.299,8.15c-0.09,3.217-0.83,5.672-1.822,7.533
			c-1.729,3.246-2.201,7.088-0.896,10.537c0.857,2.27,0.961,5.459-0.867,9.869c-4.34,10.477-37.02,9.148-40.5,8.977
			c-0.207-0.01-0.414-0.016-0.621-0.014l-88.186,0.139c-6.742,0.01-12.215-5.607-12.215-12.549
			C310.49,334.364,310.49,296.366,310.49,276.437z" class="colorF5EFEA svgShape"></path><path fill="#e3c4a8" d="M455.016 310.3c2.801-5.166 3.105-13.242.869-18.197-1.391-3.084-1.641-6.623-.518-9.82 1.385-3.945 1.494-9.027 1.033-11.764-1.061-6.309-5.133-9.193-10.916-10.385.42.975.736 2.061.939 3.275.461 2.736.354 7.818-1.033 11.762-1.121 3.199-.871 6.738.518 9.82 2.236 4.957 1.934 13.033-.869 18.197-1.861 3.432-2.23 7.529-.717 11.139.846 2.02 1.396 4.674 1.299 8.148-.092 3.217-.83 5.674-1.822 7.535-1.727 3.246-2.199 7.086-.896 10.537.857 2.27.961 5.457-.867 9.869-4.242 10.234-19.244 9.6-28.281 9.129-23.803-1.244-47.537-1.809-71.365-2.078-10.01-.113-20.016-.225-30.023-.338-.354 0-1.172 0-1.516-.029 2.219 7.373 6.988 9.535 11.857 9.527l89.242 1.977c.207 0 0 0 .207.01 3.482.172 35.516-.611 39.855-11.088 1.828-4.41 1.725-7.6.867-9.869-1.305-3.449-.832-7.291.896-10.537.992-1.861 1.732-4.316 1.822-7.533.098-3.477-.451-6.131-1.299-8.15C452.785 317.827 453.154 313.729 455.016 310.3zM403.078 235.021c-.244-8.131.059-23.473-6.496-29.785l0 0v-.002c-2.152-2.07-5.053-3.15-8.939-2.705-2.789.078-5.697 1.229-7.857 4.717 0 0 6.793.738 8.883 14.053.107.889.221 1.775.334 2.664.014.145.031.283.043.43l.01-.02c.156 1.236.307 2.473.477 3.707.303 2.229.627 4.455.975 6.676.92 5.893 1.732 11.688 5.273 16.676 4.246 5.986 12.328 9.703 19.563 7.469C415.342 258.899 403.77 257.868 403.078 235.021z" class="colorE2D6CC svgShape"></path><path fill="#61d1fb" d="M278.916,386.228H241.68c-9.633,0-17.439-7.807-17.439-17.439V259.771c0-9.633,7.807-17.441,17.439-17.441
			h37.236c9.631,0,17.439,7.809,17.439,17.441v109.018C296.355,378.421,288.547,386.228,278.916,386.228z" class="color61CCFB svgShape"></path><path fill="#4592af" d="M278.916,242.329H277.9c1.477,2.561,2.334,5.523,2.334,8.691v109.018c0,9.633-7.809,17.439-17.441,17.439
			h-36.219c3.012,5.225,8.643,8.75,15.105,8.75h37.236c9.631,0,17.439-7.807,17.439-17.439V259.771
			C296.355,250.138,288.547,242.329,278.916,242.329z" class="color2DB1E0 svgShape"></path><path fill="#ffc999" d="M231.74,375.663V266.646c0-9.633,7.807-17.441,17.439-17.441h37.236c2.691,0,5.234,0.629,7.51,1.719
			c-3.035-5.137-8.611-8.594-15.01-8.594H241.68c-9.633,0-17.439,7.809-17.439,17.441v109.018c0,6.939,4.061,12.912,9.93,15.721
			C232.635,381.915,231.74,378.897,231.74,375.663z" class="color99E5FF svgShape"></path><circle cx="258.685" cy="356.147" r="14.509" fill="#ff9e46" class="colorFF464C svgShape"></circle><path fill="#ef8729" d="M261.783,341.979c0.502,1.469,0.785,3.037,0.785,4.678c0,8.014-6.496,14.51-14.51,14.51
			c-1.064,0-2.098-0.123-3.098-0.34c1.949,5.713,7.35,9.828,13.723,9.828c8.014,0,14.51-6.494,14.51-14.508
			C273.193,349.2,268.307,343.399,261.783,341.979z" class="colorEF2938 svgShape"></path><path fill="#ffbc80" d="M246.955,359.38c0-8.012,6.498-14.51,14.51-14.51c3.627,0,6.936,1.342,9.479,3.543
			c-2.57-4.066-7.094-6.775-12.26-6.775c-8.012,0-14.508,6.498-14.508,14.51c0,4.387,1.953,8.309,5.029,10.969
			C247.789,364.874,246.955,362.228,246.955,359.38z" class="colorFF8089 svgShape"></path><g fill="#000000" class="color000 svgShape"><path fill="#226089" d="M190.094 284.728c-.992 0-1.992-.236-2.906-.717l-35.314-18.566-35.313 18.566c-2.107 1.107-4.66.92-6.582-.477-1.926-1.398-2.889-3.768-2.486-6.113l6.744-39.32-28.57-27.85c-1.703-1.66-2.316-4.145-1.582-6.406.736-2.264 2.691-3.912 5.047-4.254l39.482-5.738 17.656-35.775c1.051-2.135 3.225-3.484 5.604-3.484s4.553 1.35 5.604 3.484l17.658 35.775 39.48 5.738c2.355.342 4.311 1.99 5.045 4.254.736 2.262.123 4.746-1.58 6.406l-28.568 27.848 6.744 39.322c.402 2.346-.563 4.715-2.486 6.113C192.682 284.325 191.391 284.728 190.094 284.728zM151.873 252.134c.998 0 1.998.24 2.908.719l27.014 14.201-5.158-30.08c-.348-2.027.322-4.096 1.797-5.531l21.852-21.303-30.199-4.389c-2.037-.297-3.795-1.574-4.705-3.42l-13.508-27.365-13.506 27.365c-.91 1.846-2.67 3.123-4.705 3.42l-30.203 4.389 21.855 21.303c1.473 1.436 2.145 3.504 1.797 5.531l-5.158 30.08 27.012-14.201C149.875 252.374 150.875 252.134 151.873 252.134zM72.838 184.69c.943.51 1.961.752 2.963.752 2.223 0 4.375-1.189 5.506-3.281 1.086-2.01 2.271-4 3.527-5.912 1.893-2.885 1.088-6.76-1.799-8.654-2.885-1.895-6.76-1.088-8.654 1.799-1.449 2.209-2.818 4.506-4.072 6.828C68.668 179.259 69.801 183.05 72.838 184.69zM211.523 346.558c3.453 0 6.25-2.799 6.25-6.25v-6.908c0-3.453-2.797-6.25-6.25-6.25-3.451 0-6.25 2.797-6.25 6.25v6.908C205.273 343.759 208.072 346.558 211.523 346.558zM356.74 366.72c-.002 0-.006 0-.01 0l-10.625.016c-3.451.004-6.246 2.807-6.24 6.26.004 3.447 2.803 6.24 6.25 6.24.002 0 .006 0 .01 0l10.625-.016c3.451-.006 6.244-2.809 6.24-6.26C362.984 369.511 360.188 366.72 356.74 366.72z" class="color7B0C96 svgShape"></path><path fill="#226089" d="M464.672,310.448c5.711-8.035,6.52-21.303,1.805-29.58c-0.918-1.609-1.123-3.307-0.564-4.656
				c2.465-5.953,2.736-13.596,1.945-18.178c-1.654-9.551-7.93-15.424-18.646-17.455c-5.449-1.033-11.539-0.711-17.432-0.396
				c-9.717,0.516-18.898,1.004-24.035-4.031c-4.363-4.275-4.645-12.633-4.871-19.348c-0.063-1.836-0.051-3.945-0.039-6.178
				c0.063-10.936,0.141-24.547-7.863-32.6c-3.943-3.965-9.232-5.977-15.725-5.979c-0.004,0-0.006,0-0.01,0
				c-10.385,0-23.023,6.898-24.289,39.756c-0.727,18.838-7.848,27.889-24.551,31.236c-2.113,0.371-16.826,1.379-29.424,1.85
				c-2.061-12.457-12.877-21.996-25.908-21.996h-30.098c-0.037-51.303-41.783-93.027-93.094-93.027
				c-14.477,0-28.35,3.234-41.236,9.609c-2.35,1.164-4.67,2.436-6.895,3.783c-1.965,1.189-3.904,2.463-5.762,3.785
				c-1.93,1.371-3.838,2.842-5.674,4.369c-2.652,2.211-3.01,6.15-0.801,8.803c2.209,2.654,6.15,3.014,8.803,0.803
				c1.59-1.326,3.244-2.6,4.916-3.789c1.607-1.145,3.287-2.246,4.99-3.277c1.924-1.164,3.932-2.266,5.967-3.273
				c11.146-5.516,23.156-8.313,35.691-8.313c44.416,0,80.557,36.117,80.594,80.527h-0.902c-14.496,0-26.291,11.795-26.291,26.293
				v34.111c-14.75,13.064-33.631,20.258-53.4,20.258c-44.439,0-80.594-36.156-80.594-80.596c0-1.67,0.051-3.369,0.156-5.053
				c0.201-3.264,0.605-6.545,1.199-9.754c0.434-2.336,0.98-4.688,1.623-6.988c0.932-3.324-1.01-6.773-4.334-7.703
				c-3.326-0.934-6.771,1.012-7.701,4.334c-0.746,2.658-1.377,5.375-1.879,8.078c-0.686,3.707-1.152,7.496-1.385,11.264
				c-0.119,1.938-0.18,3.896-0.18,5.822c0,51.334,41.76,93.096,93.094,93.096c19.279,0,37.834-5.916,53.4-16.84v13.918
				c0,3.453,2.799,6.25,6.25,6.25c3.453,0,6.25-2.797,6.25-6.25v-63.947c0-7.605,6.188-13.793,13.791-13.793h43.5
				c7.604,0,13.791,6.188,13.791,13.793v123.875c0,7.605-6.188,13.791-13.791,13.791h-43.5c-7.604,0-13.791-6.186-13.791-13.791
				v-12.572c0-3.453-2.797-6.25-6.25-6.25c-3.451,0-6.25,2.797-6.25,6.25v12.572c0,14.498,11.795,26.291,26.291,26.291h43.5
				c12.346,0,22.703-8.564,25.514-20.059l21.793-0.027c3.451-0.004,6.248-2.805,6.244-6.256c-0.004-3.449-2.803-6.244-6.25-6.244
				c-0.002,0-0.006,0-0.006,0l-21.004,0.027V257.382c12.453-0.473,28.602-1.506,31.465-2.08
				c22.352-4.479,33.674-18.549,34.617-43.016c0.307-7.938,1.34-14.395,3.074-19.191c3.063-8.479,7.117-8.547,8.689-8.547
				c0.014,0,0.027,0,0.039,0c4.111,0,5.887,1.309,6.865,2.291c4.34,4.367,4.275,15.551,4.23,23.717
				c-0.014,2.359-0.027,4.588,0.045,6.67c0.285,8.473,0.678,20.074,8.613,27.854c9.061,8.881,22.014,8.193,33.447,7.584
				c5.389-0.285,10.479-0.553,14.441,0.195c6.363,1.207,8.031,3.691,8.656,7.307c0.43,2.492,0.262,7.791-1.178,11.266
				c-0.254,0.613-0.469,1.24-0.645,1.873c-0.025,0-0.049-0.008-0.074-0.008h-12.51c-3.451,0-6.25,2.799-6.25,6.25
				c0,3.453,2.799,6.25,6.25,6.25h12.51c0.438,0,0.861-0.047,1.273-0.131c0.221,0.467,0.438,0.934,0.699,1.391
				c2.129,3.736,2.1,11.607-1.131,16.152c-0.668,0.939-1.229,1.936-1.689,2.969h-11.662c-3.451,0-6.25,2.799-6.25,6.25
				c0,3.453,2.799,6.25,6.25,6.25h10.951c0.291,0.963,0.656,1.91,1.111,2.834c0.932,1.898,1.361,4.402,1.273,7.439
				c-0.074,2.619-0.641,4.807-1.684,6.504c-0.736,1.199-1.23,2.406-1.555,3.604h-10.098c-3.451,0-6.25,2.797-6.25,6.25
				c0,3.451,2.799,6.25,6.25,6.25h10.84c0.861,4.924-0.555,7.256-1.703,8.578c-6.9,7.936-29.279,7.061-40.039,6.637
				c-1.141-0.045-2.197-0.086-3.123-0.115l-0.162-0.006c-0.264-0.012-0.529-0.02-0.803-0.02l-26.367,0.039
				c-3.451,0.006-6.246,2.809-6.24,6.26c0.004,3.449,2.803,6.24,6.25,6.24c0.002,0,0.006,0,0.01,0l26.357-0.039l0.543,0.018
				c0.918,0.029,1.939,0.07,3.047,0.113c3.422,0.133,7.379,0.289,11.576,0.289c13.76,0,30.082-1.668,38.383-11.215
				c3.025-3.479,6.271-9.617,4.561-19.105c-0.137-0.752-0.293-1.502-0.449-2.246c-0.451-2.146-0.879-4.172-0.379-4.986
				c2.203-3.584,3.391-7.852,3.531-12.688c0.146-5.096-0.713-9.574-2.555-13.32C463.496,314.136,463.6,311.96,464.672,310.448z" class="color7B0C96 svgShape"></path><path fill="#226089" d="M253.314 375.655c13.719 0 24.879-11.158 24.879-24.877s-11.16-24.879-24.879-24.879-24.879 11.16-24.879 24.879S239.596 375.655 253.314 375.655zM253.314 338.399c6.826 0 12.379 5.553 12.379 12.379 0 6.824-5.553 12.377-12.379 12.377s-12.379-5.553-12.379-12.377C240.936 343.952 246.488 338.399 253.314 338.399zM151.873 111.776c-3.453 0-6.25-2.797-6.25-6.25V80.382c0-3.453 2.797-6.25 6.25-6.25 3.451 0 6.25 2.797 6.25 6.25v25.145C158.123 108.979 155.324 111.776 151.873 111.776zM193.391 116.214c-1.471 0-2.949-.516-4.137-1.566-2.586-2.287-2.83-6.236-.545-8.822l17.492-19.795c2.287-2.584 6.236-2.83 8.824-.545 2.584 2.287 2.828 6.238.543 8.824l-17.492 19.793C196.842 115.499 195.119 116.214 193.391 116.214zM110.357 116.214c-1.73 0-3.451-.713-4.688-2.111L88.178 94.31c-2.285-2.586-2.041-6.537.545-8.824 2.588-2.285 6.537-2.041 8.822.545l17.494 19.795c2.285 2.586 2.041 6.535-.545 8.822C113.305 115.698 111.828 116.214 110.357 116.214z" class="color7B0C96 svgShape"></path></g></svg></g></svg>